# xmcd
#
# Track frame offsets:
#	150
#	11532
#	36560
#	49797
#	61855
#	83832
#	97262
#	111725
#	123770
#	136505
#
# Disc length: 2028
#
# Revision: 5
# Processed by: cddbd v1.5.1PL0 Copyright (c) Steve Scherf et al.
# Submitted via: Grip 2.9
# Normalized: r3:TSWAP
#
DISCID=8407ea0a
DTITLE=Various Artist - Blues Story
DYEAR=1900
DGENRE=
TTITLE0=John Lee Hooker - Boom Boom
TTITLE1=Howlin' Wolf - Red Rooster
TTITLE2=Elmore James - Dust My Broom
TTITLE3=Jimmy Reed - Honest I Do
TTITLE4=B B King - The Thrill Is Gone
TTITLE5=Muddy Waters - Rollin' and Tumblin'
TTITLE6=Lightin' Hopkins - Santa Fe Blues
TTITLE7=John Lee Hooker - Crawlin' Kingsnake Blues
TTITLE8=Elmore James - The Sky Is Crying
TTITLE9=Memphis Slim - Mother Earth
EXTD=
EXTT0=
EXTT1=
EXTT2=
EXTT3=
EXTT4=
EXTT5=
EXTT6=
EXTT7=
EXTT8=
EXTT9=
PLAYORDER=
